HIERARCHY
ROOT root
{
	OFFSET	0	13.1	24.9
	CHANNELS 6  Xposition Yposition Zposition Xrotation Yrotation Zrotation
	JOINT spine_1
	{
		OFFSET	0	9.99999	0
		CHANNELS 3  Xrotation Yrotation Zrotation
		JOINT spine_2
		{
			OFFSET	0	112	-10
			CHANNELS 3  Xrotation Yrotation Zrotation
			JOINT spine_3
			{
				OFFSET	0	206.5	19.3
				CHANNELS 3  Xrotation Yrotation Zrotation
				JOINT spine_4
				{
					OFFSET	0	110.4	14.6
					CHANNELS 3  Xrotation Yrotation Zrotation
					JOINT neck_1
					{
						OFFSET	0	71.8	-50.3
						CHANNELS 3  Xrotation Yrotation Zrotation
						JOINT neck_2
						{
							OFFSET	0	86.2	-25.8
							CHANNELS 3  Xrotation Yrotation Zrotation
							JOINT head_ee
							{
								OFFSET	0	179.8	-8.7
								CHANNELS 3  Xrotation Yrotation Zrotation
								End Site
								{
									OFFSET	1	0	0
								}
							}
						}
					}
					JOINT left_clavicle
					{
						OFFSET	-43.2	22.4	-70.8
						CHANNELS 3  Xrotation Yrotation Zrotation
						JOINT left_shoulder
						{
							OFFSET	-93.9	-5.79999	48.7
							CHANNELS 3  Xrotation Yrotation Zrotation
							JOINT left_elbow
							{
								OFFSET	-291.4	-30.8	15.2
								CHANNELS 3  Xrotation Yrotation Zrotation
								JOINT left_lowarm_twist
								{
									OFFSET	-110.7	-3.89999	13.6
									CHANNELS 3  Xrotation Yrotation Zrotation
									JOINT left_hand
									{
										OFFSET	-110.7	-3.89999	13.6
										CHANNELS 3  Xrotation Yrotation Zrotation
										JOINT left_ee
										{
											OFFSET	-80.8	-5.10001	12.1
											CHANNELS 3  Xrotation Yrotation Zrotation
											End Site
											{
												OFFSET	1	0	0
											}
										}
									}
								}
							}
						}
					}
					JOINT right_clavicle
					{
						OFFSET	43.2	22.4	-70.8
						CHANNELS 3  Xrotation Yrotation Zrotation
						JOINT right_shoulder
						{
							OFFSET	93.9	-5.79999	48.7
							CHANNELS 3  Xrotation Yrotation Zrotation
							JOINT right_elbow
							{
								OFFSET	291.4	-30.8	15.2
								CHANNELS 3  Xrotation Yrotation Zrotation
								JOINT right_lowarm_twist
								{
									OFFSET	110.7	-3.89999	13.6
									CHANNELS 3  Xrotation Yrotation Zrotation
									JOINT right_hand
									{
										OFFSET	110.7	-3.89999	13.6
										CHANNELS 3  Xrotation Yrotation Zrotation
										JOINT right_ee
										{
											OFFSET	80.8	-5.10001	12.1
											CHANNELS 3  Xrotation Yrotation Zrotation
											End Site
											{
												OFFSET	1	0	0
											}
										}
									}
								}
							}
						}
					}
				}
			}
		}
	}
	JOINT left_hip
	{
		OFFSET	-82.8	-127.5	0.300001
		CHANNELS 3  Xrotation Yrotation Zrotation
		JOINT left_knee
		{
			OFFSET	-28.2	-396.7	2.2
			CHANNELS 3  Xrotation Yrotation Zrotation
			JOINT left_ankle
			{
				OFFSET	-11.7	-411.3	35.4
				CHANNELS 3  Xrotation Yrotation Zrotation
				JOINT left_toes
				{
					OFFSET	0	-60	-88.6
					CHANNELS 3  Xrotation Yrotation Zrotation
					JOINT left_foot_ee
					{
						OFFSET	-22.5	-16.5	-42.2
						CHANNELS 3  Xrotation Yrotation Zrotation
						End Site
						{
							OFFSET	1	0	0
						}
					}
				}
			}
		}
	}
	JOINT right_hip
	{
		OFFSET	82.8	-127.5	0.300001
		CHANNELS 3  Xrotation Yrotation Zrotation
		JOINT right_knee
		{
			OFFSET	28.2	-396.7	2.2
			CHANNELS 3  Xrotation Yrotation Zrotation
			JOINT right_ankle
			{
				OFFSET	11.7	-411.3	35.4
				CHANNELS 3  Xrotation Yrotation Zrotation
				JOINT right_toes
				{
					OFFSET	0	-60	-88.6
					CHANNELS 3  Xrotation Yrotation Zrotation
					JOINT right_foot_ee
					{
						OFFSET	22.5	-16.5	-42.2
						CHANNELS 3  Xrotation Yrotation Zrotation
						End Site
						{
							OFFSET	1	0	0
						}
					}
				}
			}
		}
	}
}
MOTION
Frames: 5
Frame Time: 0.02
2800.94 716.97 -1473.77 -1.7245421323 46.9884028981 -6.31184890976 0.0227234 0.0541404 3.27373 0.0286719 -0.154172 3.27055 0.0222205 -0.837825 3.16528 0.0083902 -0.327693 3.25775 -5.42959 21.7045 1.13787 -5.15252 39.3199 5.07651 -0.0 0.0 -0.0 1.42452 15.7347 4.10369 7.42397 -15.2404 42.2496 8.26997 -76.2368 6.49311 -56.2761 -4.8236 4.97024 -1.97351 19.2367 -4.0404 -0.0 0.0 -0.0 10.5603 17.3041 -20.8324 -25.7092 14.5781 -61.419 0.333091 9.36979 -0.0272968 22.0238 -0.243321 2.78554 1.26198 -29.1314 -18.447 0.0 0.0 0.0 -15.1322 6.11321 19.615 -13.5817 0.316878 2.05534 18.0274 15.0033 -2.50585 11.8823 -0.0 -0.0 -0.0 0.0 -0.0 32.2643 26.9031 -10.3127 -1.85942 -0.0720822 -0.27624 0.574438 -27.4753 0.0888299 -20.2035 0.0 0.0 0.0 0.0 0.0 
2712.13365786 716.933 -1498.63517437 -1.92340680497 51.7022174185 -7.11455441203 -0.2616 0.590297 3.65083 -0.254257 0.35695 3.68094 -0.226857 -0.439563 3.672 -0.24564 0.145468 3.69532 -4.54303 19.5387 -3.93478 -3.97999 38.8487 -0.860839 -0.0 0.0 -0.0 1.27316 14.7601 3.78393 2.06347 -13.7355 45.6173 5.40108 -69.4791 3.74684 -55.8908 -4.7766 4.95499 -1.22749 19.7603 0.652664 -0.0 0.0 -0.0 11.8066 15.937 -23.7204 -21.6701 16.1455 -60.2942 0.560782 15.5252 -0.0764453 24.6356 -0.200778 3.11643 1.6018 -27.8239 -20.082 0.0 0.0 0.0 -14.0833 12.992 17.6343 -22.3718 0.259928 3.40152 18.7683 22.5979 -2.67212 12.0341 -0.0 -0.0 -0.0 0.0 -0.0 32.1327 30.9018 -8.09827 -15.3557 -0.322035 -2.32746 -0.865355 -19.9189 -0.129479 -18.4649 0.0 0.0 0.0 0.0 0.0 
2712.75784646 716.933 -1500.76539031 -1.86705291387 50.3238255884 -7.18704973064 -0.2616 0.590297 3.65083 -0.254257 0.35695 3.68094 -0.226857 -0.439563 3.672 -0.24564 0.145468 3.69532 -4.54303 19.5387 -3.93478 -3.97999 38.8487 -0.860839 -0.0 0.0 -0.0 1.27316 14.7601 3.78393 2.06347 -13.7355 45.6173 5.40108 -69.4791 3.74684 -55.8908 -4.7766 4.95499 -1.22749 19.7603 0.652664 -0.0 0.0 -0.0 11.8066 15.937 -23.7204 -21.6701 16.1455 -60.2942 0.560782 15.5252 -0.0764453 24.6356 -0.200778 3.11643 1.6018 -27.8239 -20.082 0.0 0.0 0.0 -14.0833 12.992 17.6343 -22.3718 0.259928 3.40152 18.7683 22.5979 -2.67212 12.0341 -0.0 -0.0 -0.0 0.0 -0.0 32.1327 30.9018 -8.09827 -15.3557 -0.322035 -2.32746 -0.865355 -19.9189 -0.129479 -18.4649 0.0 0.0 0.0 0.0 0.0 
2713.24917231 716.933 -1502.32104269 -1.82835600013 49.3107801951 -7.23769876281 -0.2616 0.590297 3.65083 -0.254257 0.35695 3.68094 -0.226857 -0.439563 3.672 -0.24564 0.145468 3.69532 -4.54303 19.5387 -3.93478 -3.97999 38.8487 -0.860839 -0.0 0.0 -0.0 1.27316 14.7601 3.78393 2.06347 -13.7355 45.6173 5.40108 -69.4791 3.74684 -55.8908 -4.7766 4.95499 -1.22749 19.7603 0.652664 -0.0 0.0 -0.0 11.8066 15.937 -23.7204 -21.6701 16.1455 -60.2942 0.560782 15.5252 -0.0764453 24.6356 -0.200778 3.11643 1.6018 -27.8239 -20.082 0.0 0.0 0.0 -14.0833 12.992 17.6343 -22.3718 0.259928 3.40152 18.7683 22.5979 -2.67212 12.0341 -0.0 -0.0 -0.0 0.0 -0.0 32.1327 30.9018 -8.09827 -15.3557 -0.322035 -2.32746 -0.865355 -19.9189 -0.129479 -18.4649 0.0 0.0 0.0 0.0 0.0 
2677.51590009 725.687 -1514.31595986 -1.42523568341 50.4836554503 -7.83749486448 -0.196742 0.931908 3.88953 -0.188586 0.682716 3.94084 -0.136156 -0.170011 3.99584 -0.158134 0.462682 3.97264 -4.59736 18.7006 -5.55576 -3.97542 38.5023 -2.6744 -0.0 0.0 -0.0 0.647984 14.5351 2.75658 -2.67915 -14.6669 48.0431 4.96477 -67.8487 3.34039 -55.5059 -4.72973 4.93944 -0.941273 19.5565 2.26767 -0.0 0.0 -0.0 12.4171 16.5438 -25.0944 -19.6492 17.3557 -59.7687 0.62998 17.3319 -0.0960182 25.2934 -0.187688 3.19944 1.68103 -27.3732 -20.4372 0.0 0.0 0.0 -11.2035 15.0777 15.5449 -33.0254 -0.0836532 4.99808 18.9881 24.1273 -2.72189 12.7911 -0.0 -0.0 -0.0 0.0 -0.0 30.4092 32.2587 -7.70148 -20.5212 -0.289078 -3.11906 0.128381 -13.6912 0.0188619 -17.8205 0.0 0.0 0.0 0.0 0.0 
